<svg width="24" height="24" viewBox="0 0 24 24" fill="none" xmlns="http://www.w3.org/2000/svg">
<path d="M2.29289 4.29297C2.68343 3.90259 3.31648 3.90249 3.70696 4.29297L18.707 19.293C19.0973 19.6835 19.0973 20.3165 18.707 20.707C18.3165 21.0975 17.6834 21.0975 17.2929 20.707L14.5859 18H4.99992C4.44764 18 3.99992 17.5523 3.99992 17C3.99999 16.4478 4.44768 16 4.99992 16H12.5859L9.58586 13H4.99992C4.44764 13 3.99992 12.5523 3.99992 12C3.99999 11.4478 4.44768 11 4.99992 11H7.58586L2.29289 5.70703C1.90237 5.31651 1.90237 4.68349 2.29289 4.29297Z" fill="black" fill-opacity="0.55"/>
<path d="M18.9999 16C19.5521 16.0001 19.9999 16.4478 19.9999 17C19.9999 17.2726 19.8897 17.5188 19.7128 17.6992L18.0136 16H18.9999Z" fill="black" fill-opacity="0.55"/>
<path d="M18.9999 11C19.5521 11.0001 19.9999 11.4478 19.9999 12C19.9999 12.5522 19.5521 12.9999 18.9999 13H15.0136L13.0136 11H18.9999Z" fill="black" fill-opacity="0.55"/>
<path d="M14.4989 3C15.3281 3.0003 15.9994 3.67382 15.997 4.50293L15.9941 5.41406C15.994 5.95588 15.8573 6.50311 15.5839 7.05469C15.4148 7.40203 15.2164 7.70957 14.9892 7.97754C14.7502 8.25928 14.3443 8.2994 14.0155 8.13086C13.7108 7.97457 13.5953 7.59797 13.7548 7.29492C13.7764 7.25392 13.7979 7.21287 13.8193 7.17188C13.9364 6.94728 14.0341 6.70018 14.1122 6.43164C14.1514 6.297 14.1806 6.15305 14.2001 6C13.5373 6 12.9999 5.46265 12.9999 4.7998V4.49902C12.9999 3.6714 13.6713 3 14.4989 3Z" fill="black" fill-opacity="0.55"/>
<path d="M18.4989 3C19.3281 3.0003 19.9994 3.67382 19.997 4.50293L19.9941 5.41406C19.994 5.95588 19.8573 6.50311 19.5839 7.05469C19.4148 7.40203 19.2164 7.70957 18.9892 7.97754C18.7502 8.25928 18.3443 8.2994 18.0155 8.13086C17.7108 7.97457 17.5953 7.59797 17.7548 7.29492C17.7764 7.25392 17.7979 7.21287 17.8193 7.17188C17.9364 6.94728 18.0341 6.70018 18.1122 6.43164C18.1514 6.297 18.1806 6.15305 18.2001 6C17.5373 6 16.9999 5.46265 16.9999 4.7998V4.49902C16.9999 3.6714 17.6713 3 18.4989 3Z" fill="black" fill-opacity="0.55"/>
<path d="M10.9999 6C11.5521 6.00009 11.9999 6.44782 11.9999 7C11.9999 7.55223 11.5521 7.99991 10.9999 8H10.0136L8.0136 6H10.9999Z" fill="black" fill-opacity="0.55"/>
</svg>
