<svg width="12" height="12" viewBox="0 0 12 12" fill="none" xmlns="http://www.w3.org/2000/svg">
<path d="M4.00065 2C5.1069 2.00076 6.00323 2.90194 5.99999 4.01127L5.99608 5.23059C5.99597 5.95559 5.8134 6.68807 5.44867 7.42614C5.22305 7.89084 4.95807 8.3026 4.65493 8.66113C4.33616 9.03802 3.79412 9.09156 3.35549 8.86631C2.9488 8.65716 2.7946 8.15317 3.00749 7.74763C3.03625 7.69284 3.06501 7.63773 3.09351 7.58297C3.24984 7.28247 3.38029 6.95161 3.48452 6.59235C3.53676 6.41223 3.57577 6.21946 3.60182 6.01471C2.71716 6.01471 2 5.29562 2 4.40857V4.00605C2 2.8985 2.89607 2 4.00065 2Z" fill="black" fill-opacity="0.55"/>
<path d="M9.00065 2C10.1069 2.00076 11.0032 2.90194 11 4.01127L10.9961 5.23059C10.996 5.95559 10.8134 6.68807 10.4487 7.42614C10.2231 7.89084 9.95806 8.3026 9.65492 8.66113C9.33616 9.03802 8.79412 9.09156 8.35549 8.86631C7.9488 8.65716 7.7946 8.15317 8.00749 7.74763C8.03625 7.69284 8.06501 7.63773 8.09351 7.58297C8.24984 7.28247 8.38029 6.95161 8.48452 6.59235C8.53676 6.41223 8.57577 6.21946 8.60182 6.01471C7.71716 6.01471 7 5.29562 7 4.40857V4.00605C7 2.8985 7.89607 2 9.00065 2Z" fill="black" fill-opacity="0.55"/>
</svg>
