<svg width="24" height="24" viewBox="0 0 24 24" fill="none" xmlns="http://www.w3.org/2000/svg">
<path fill-rule="evenodd" clip-rule="evenodd" d="M19 14C19.5523 14 20 14.4477 20 15V16.1748C21.1645 16.587 22 17.6943 22 19C22 20.6569 20.6569 22 19 22C17.3431 22 16 20.6569 16 19C16 17.6943 16.8355 16.587 18 16.1748V15C18 14.4477 18.4477 14 19 14ZM19 18C18.4477 18 18 18.4477 18 19C18 19.5523 18.4477 20 19 20C19.5523 20 20 19.5523 20 19C20 18.4477 19.5523 18 19 18Z" fill="white" fill-opacity="0.55"/>
<path d="M13 16C13.5523 16 14 16.4477 14 17C14 17.5523 13.5523 18 13 18H5C4.44772 18 4 17.5523 4 17C4 16.4477 4.44772 16 5 16H13Z" fill="white" fill-opacity="0.55"/>
<path d="M19 11C19.5523 11 20 11.4477 20 12C20 12.5523 19.5523 13 19 13H5C4.44772 13 4 12.5523 4 12C4 11.4477 4.44772 11 5 11H19Z" fill="white" fill-opacity="0.55"/>
<path fill-rule="evenodd" clip-rule="evenodd" d="M5 2C6.65685 2 8 3.34315 8 5C8 6.30574 7.16452 7.41299 6 7.8252V9C6 9.55228 5.55228 10 5 10C4.44772 10 4 9.55228 4 9V7.8252C2.83548 7.41299 2 6.30574 2 5C2 3.34315 3.34315 2 5 2ZM5 4C4.44772 4 4 4.44772 4 5C4 5.55228 4.44772 6 5 6C5.55228 6 6 5.55228 6 5C6 4.44772 5.55228 4 5 4Z" fill="white" fill-opacity="0.55"/>
<path d="M19 6C19.5523 6 20 6.44772 20 7C20 7.55228 19.5523 8 19 8H10C9.44772 8 9 7.55228 9 7C9 6.44772 9.44772 6 10 6H19Z" fill="white" fill-opacity="0.55"/>
</svg>
