<svg width="24" height="24" viewBox="0 0 24 24" fill="none" xmlns="http://www.w3.org/2000/svg">
<path d="M19 16C19.5523 16 20 16.4477 20 17C20 17.5523 19.5523 18 19 18H5C4.44772 18 4 17.5523 4 17C4 16.4477 4.44772 16 5 16H19Z" fill="#656565"/>
<path d="M19 11C19.5523 11 20 11.4477 20 12C20 12.5523 19.5523 13 19 13H5C4.44772 13 4 12.5523 4 12C4 11.4477 4.44772 11 5 11H19Z" fill="#656565"/>
<path d="M14.499 3C15.3282 3.00026 15.9995 3.67379 15.9971 4.50293L15.9941 5.41406C15.9941 5.95589 15.8573 6.5031 15.584 7.05469C15.4149 7.40205 15.2165 7.70956 14.9893 7.97754C14.7503 8.2593 14.3444 8.29944 14.0156 8.13086C13.7109 7.97457 13.5954 7.59797 13.7549 7.29492C13.7765 7.25391 13.7979 7.21288 13.8193 7.17188C13.9365 6.94727 14.0342 6.7002 14.1123 6.43164C14.1515 6.297 14.1807 6.15305 14.2002 6C13.5373 6 13 5.46265 13 4.7998V4.49902C13 3.6714 13.6714 3 14.499 3Z" fill="#656565"/>
<path d="M18.499 3C19.3282 3.00026 19.9995 3.67379 19.9971 4.50293L19.9941 5.41406C19.9941 5.95589 19.8573 6.5031 19.584 7.05469C19.4149 7.40205 19.2165 7.70956 18.9893 7.97754C18.7503 8.2593 18.3444 8.29944 18.0156 8.13086C17.7109 7.97457 17.5954 7.59797 17.7549 7.29492C17.7765 7.25391 17.7979 7.21288 17.8193 7.17188C17.9365 6.94727 18.0342 6.7002 18.1123 6.43164C18.1515 6.297 18.1807 6.15305 18.2002 6C17.5373 6 17 5.46265 17 4.7998V4.49902C17 3.6714 17.6714 3 18.499 3Z" fill="#656565"/>
<path d="M11 6C11.5523 6 12 6.44772 12 7C12 7.55228 11.5523 8 11 8H5C4.44772 8 4 7.55228 4 7C4 6.44772 4.44772 6 5 6H11Z" fill="#656565"/>
</svg>
