<svg width="24" height="24" viewBox="0 0 24 24" fill="none" xmlns="http://www.w3.org/2000/svg">
<path d="M8.29289 7.29304C8.68342 6.90252 9.31643 6.90252 9.70696 7.29304C10.0975 7.68357 10.0975 8.31658 9.70696 8.70711L6.41399 12.0001H15.9999C17.326 12.0001 18.5974 12.5272 19.5351 13.4649C20.4728 14.4026 20.9999 15.674 20.9999 17.0001V21.0001C20.9999 21.5524 20.5522 22.0001 19.9999 22.0001C19.4476 22.0001 18.9999 21.5524 18.9999 21.0001V17.0001C18.9999 16.2044 18.6836 15.4416 18.121 14.879C17.5584 14.3164 16.7956 14.0001 15.9999 14.0001H6.41399L9.70696 17.293C10.0975 17.6836 10.0975 18.3166 9.70696 18.7071C9.31643 19.0976 8.68342 19.0976 8.29289 18.7071L3.29289 13.7071C2.90237 13.3166 2.90237 12.6836 3.29289 12.293L8.29289 7.29304Z" fill="white" fill-opacity="0.55"/>
<path d="M16.4989 3C17.3278 3.00057 17.9993 3.67398 17.9969 4.50293L17.994 5.41406C17.9939 5.95582 17.8571 6.50317 17.5838 7.05469C17.4148 7.40193 17.2162 7.70963 16.9891 7.97754C16.7503 8.25917 16.3441 8.29917 16.0155 8.13086C15.7108 7.97457 15.5952 7.59797 15.7547 7.29492C15.7763 7.25398 15.7978 7.2128 15.8192 7.17188C15.9363 6.94733 16.0341 6.7001 16.1122 6.43164C16.1513 6.29704 16.1805 6.153 16.2 6C15.5372 6 14.9998 5.46265 14.9998 4.7998V4.49902C14.9998 3.6714 15.6712 3 16.4989 3Z" fill="white" fill-opacity="0.55"/>
<path d="M20.4989 3C21.3278 3.00057 21.9993 3.67398 21.9969 4.50293L21.994 5.41406C21.9939 5.95582 21.8571 6.50317 21.5838 7.05469C21.4148 7.40193 21.2162 7.70963 20.9891 7.97754C20.7503 8.25917 20.3441 8.29917 20.0155 8.13086C19.7108 7.97457 19.5952 7.59797 19.7547 7.29492C19.7763 7.25398 19.7978 7.2128 19.8192 7.17188C19.9363 6.94733 20.0341 6.7001 20.1122 6.43164C20.1513 6.29704 20.1805 6.153 20.2 6C19.5372 6 18.9998 5.46265 18.9998 4.7998V4.49902C18.9998 3.6714 19.6712 3 20.4989 3Z" fill="white" fill-opacity="0.55"/>
</svg>
