<svg width="24" height="24" viewBox="0 0 24 24" fill="none" xmlns="http://www.w3.org/2000/svg">
<path d="M7.29289 7.29297C7.68343 6.90262 8.31648 6.90251 8.70695 7.29297C9.09741 7.68344 9.0973 8.31649 8.70695 8.70703L5.41398 12H14.9999C16.3259 12.0001 17.5974 12.5272 18.5351 13.4648C19.4727 14.4025 19.9999 15.674 19.9999 17V21C19.9999 21.5522 19.5521 21.9999 18.9999 22C18.4476 22 17.9999 21.5523 17.9999 21V17C17.9999 16.2044 17.6836 15.4415 17.121 14.8789C16.5585 14.3164 15.7955 14.0001 14.9999 14H5.41398L8.70695 17.293C9.09739 17.6835 9.0973 18.3165 8.70695 18.707C8.31643 19.0975 7.68342 19.0975 7.29289 18.707L2.29289 13.707C1.90237 13.3165 1.90237 12.6836 2.29289 12.293L7.29289 7.29297Z" fill="white" fill-opacity="0.55"/>
<path d="M14.4989 3C15.3278 3.00058 15.9994 3.67399 15.997 4.50293L15.9941 5.41406C15.994 5.95581 15.8572 6.50318 15.5839 7.05469C15.4149 7.40192 15.2163 7.70964 14.9892 7.97754C14.7504 8.25916 14.3441 8.29916 14.0155 8.13086C13.7108 7.97457 13.5953 7.59797 13.7548 7.29492C13.7764 7.25399 13.7979 7.21278 13.8193 7.17188C13.9364 6.94733 14.0341 6.70009 14.1122 6.43164C14.1513 6.29704 14.1806 6.153 14.2001 6C13.5373 6 12.9999 5.46265 12.9999 4.7998V4.49902C12.9999 3.6714 13.6712 3 14.4989 3Z" fill="white" fill-opacity="0.55"/>
<path d="M18.4989 3C19.3278 3.00058 19.9994 3.67399 19.997 4.50293L19.9941 5.41406C19.994 5.95581 19.8572 6.50318 19.5839 7.05469C19.4149 7.40191 19.2163 7.70964 18.9892 7.97754C18.7504 8.25916 18.3441 8.29916 18.0155 8.13086C17.7108 7.97457 17.5953 7.59797 17.7548 7.29492C17.7764 7.25399 17.7979 7.21278 17.8193 7.17188C17.9364 6.94733 18.0341 6.70009 18.1122 6.43164C18.1513 6.29704 18.1806 6.153 18.2001 6C17.5373 6 16.9999 5.46265 16.9999 4.7998V4.49902C16.9999 3.6714 17.6712 3 18.4989 3Z" fill="white" fill-opacity="0.55"/>
</svg>
