<svg width="24" height="24" viewBox="0 0 24 24" fill="none" xmlns="http://www.w3.org/2000/svg">
<path d="M8.29289 7.29289C8.68342 6.90237 9.31643 6.90237 9.70696 7.29289C10.0975 7.68342 10.0975 8.31643 9.70696 8.70696L6.41399 11.9999H15.9999C17.326 11.9999 18.5974 12.5271 19.5351 13.4648C20.4728 14.4024 20.9999 15.6738 20.9999 16.9999V20.9999C20.9999 21.5522 20.5522 21.9999 19.9999 21.9999C19.4476 21.9999 18.9999 21.5522 18.9999 20.9999V16.9999C18.9999 16.2043 18.6836 15.4414 18.121 14.8788C17.5584 14.3162 16.7956 13.9999 15.9999 13.9999H6.41399L9.70696 17.2929C10.0975 17.6834 10.0975 18.3164 9.70696 18.707C9.31643 19.0975 8.68342 19.0975 8.29289 18.707L3.29289 13.707C2.90237 13.3164 2.90237 12.6834 3.29289 12.2929L8.29289 7.29289Z" fill="black" fill-opacity="0.55"/>
<path fill-rule="evenodd" clip-rule="evenodd" d="M20 6C21.0685 6.00003 21.9392 6.83802 21.9951 7.89258C21.9989 7.92784 22 7.96374 22 8C22 8.03593 21.9988 8.0715 21.9951 8.10645C21.9397 9.16146 21.0688 9.99997 20 10C19.2601 10 18.6155 9.59732 18.2695 9H14C13.4477 9 13 8.55228 13 8C13 7.44772 13.4477 7 14 7H18.2695C18.6155 6.40268 19.2601 6 20 6ZM20 7C19.4477 7 19 7.44772 19 8C19 8.55228 19.4477 9 20 9C20.5523 8.99997 21 8.55227 21 8C21 7.44773 20.5523 7.00003 20 7Z" fill="black" fill-opacity="0.55"/>
<path fill-rule="evenodd" clip-rule="evenodd" d="M15 2C15.7399 2.00002 16.3845 2.40268 16.7305 3H21C21.5523 3.00003 22 3.44773 22 4C22 4.55227 21.5523 4.99997 21 5H16.7305C16.3845 5.59732 15.7399 5.99998 15 6C13.9312 6 13.0613 5.16145 13.0059 4.10645C13.0022 4.07146 13 4.03597 13 4C13 3.9637 13.0021 3.92787 13.0059 3.89258C13.0618 2.83803 13.9315 2 15 2ZM15 3C14.4477 3 14 3.44772 14 4C14 4.55228 14.4477 5 15 5C15.5523 4.99997 16 4.55227 16 4C16 3.44773 15.5523 3.00003 15 3Z" fill="black" fill-opacity="0.55"/>
</svg>
