<svg width="24" height="24" viewBox="0 0 24 24" fill="none" xmlns="http://www.w3.org/2000/svg">
<path d="M7.29289 7.29289C7.68342 6.90237 8.31643 6.90237 8.70696 7.29289C9.09748 7.68342 9.09748 8.31643 8.70696 8.70696L5.41399 11.9999H14.9999C16.326 11.9999 17.5974 12.5271 18.5351 13.4648C19.4728 14.4024 19.9999 15.6738 19.9999 16.9999V20.9999C19.9999 21.5522 19.5522 21.9999 18.9999 21.9999C18.4476 21.9999 17.9999 21.5522 17.9999 20.9999V16.9999C17.9999 16.2043 17.6836 15.4414 17.121 14.8788C16.5584 14.3162 15.7956 13.9999 14.9999 13.9999H5.41399L8.70696 17.2929C9.09748 17.6834 9.09748 18.3164 8.70696 18.707C8.31643 19.0975 7.68342 19.0975 7.29289 18.707L2.29289 13.707C1.90237 13.3164 1.90237 12.6834 2.29289 12.2929L7.29289 7.29289Z" fill="white" fill-opacity="0.55"/>
<path fill-rule="evenodd" clip-rule="evenodd" d="M18 6C19.0685 6.00003 19.9392 6.83802 19.9951 7.89258C19.9989 7.92784 20 7.96374 20 8C20 8.03593 19.9988 8.0715 19.9951 8.10645C19.9397 9.16146 19.0688 9.99997 18 10C17.2601 10 16.6155 9.59732 16.2695 9H12C11.4477 9 11 8.55228 11 8C11 7.44772 11.4477 7 12 7H16.2695C16.6155 6.40268 17.2601 6 18 6ZM18 7C17.4477 7 17 7.44772 17 8C17 8.55228 17.4477 9 18 9C18.5523 8.99997 19 8.55227 19 8C19 7.44773 18.5523 7.00003 18 7Z" fill="white" fill-opacity="0.55"/>
<path fill-rule="evenodd" clip-rule="evenodd" d="M13 2C13.7399 2.00002 14.3845 2.40268 14.7305 3H19C19.5523 3.00003 20 3.44773 20 4C20 4.55227 19.5523 4.99997 19 5H14.7305C14.3845 5.59732 13.7399 5.99998 13 6C11.9312 6 11.0613 5.16145 11.0059 4.10645C11.0022 4.07146 11 4.03597 11 4C11 3.9637 11.0021 3.92787 11.0059 3.89258C11.0618 2.83803 11.9315 2 13 2ZM13 3C12.4477 3 12 3.44772 12 4C12 4.55228 12.4477 5 13 5C13.5523 4.99997 14 4.55227 14 4C14 3.44773 13.5523 3.00003 13 3Z" fill="white" fill-opacity="0.55"/>
</svg>
